{
  "accessors": [
    {
      "bufferView": 2,
      "componentType": 5126,
      "count": 65532,
      "max": [
        1.1027710437774658,
        9.496438980102539,
        1.441398024559021
      ],
      "min": [
        -10.39771842956543,
        -34.9466438293457,
        -9.1903076171875
      ],
      "type": "VEC3"
    },
    {
      "bufferView": 2,
      "byteOffset": 786384,
      "componentType": 5126,
      "count": 65532,
      "max": [
        0.9999953508377075,
        0.9938026666641235,
        0.9950599074363708
      ],
      "min": [
        -0.9999808669090271,
        -0.9999929070472717,
        -0.9999985098838806
      ],
      "type": "VEC3"
    },
    {
      "bufferView": 1,
      "componentType": 5126,
      "count": 65532,
      "max": [
        0.9978579878807068,
        0.997983992099762
      ],
      "min": [
        0.004031000193208456,
        0.004031000193208456
      ],
      "type": "VEC2"
    },
    {
      "bufferView": 0,
      "componentType": 5125,
      "count": 362448,
      "type": "SCALAR"
    },
    {
      "bufferView": 2,
      "byteOffset": 1572768,
      "componentType": 5126,
      "count": 65532,
      "max": [
        9.166455268859863,
        9.19921588897705,
        11.865802764892578
      ],
      "min": [
        -8.265157699584961,
        -32.23107147216797,
        -4.435352802276611
      ],
      "type": "VEC3"
    },
    {
      "bufferView": 2,
      "byteOffset": 2359152,
      "componentType": 5126,
      "count": 65532,
      "max": [
        0.9999951124191284,
        0.9809887409210205,
        0.9999617338180542
      ],
      "min": [
        -0.9999076128005981,
        -0.9999985098838806,
        -0.9999992251396179
      ],
      "type": "VEC3"
    },
    {
      "bufferView": 1,
      "byteOffset": 524256,
      "componentType": 5126,
      "count": 65532,
      "max": [
        0.9977319836616516,
        0.997983992099762
      ],
      "min": [
        0.004031000193208456,
        0.004031000193208456
      ],
      "type": "VEC2"
    },
    {
      "bufferView": 0,
      "byteOffset": 1449792,
      "componentType": 5125,
      "count": 352731,
      "type": "SCALAR"
    },
    {
      "bufferView": 2,
      "byteOffset": 3145536,
      "componentType": 5126,
      "count": 65532,
      "max": [
        7.004941940307617,
        9.147197723388672,
        11.369844436645508
      ],
      "min": [
        -4.7964911460876465,
        -34.93733215332031,
        -9.883307456970215
      ],
      "type": "VEC3"
    },
    {
      "bufferView": 2,
      "byteOffset": 3931920,
      "componentType": 5126,
      "count": 65532,
      "max": [
        0.9999942183494568,
        0.9754084944725037,
        0.9999729990959167
      ],
      "min": [
        -0.9997217655181885,
        -0.9999953508377075,
        -0.9999958872795105
      ],
      "type": "VEC3"
    },
    {
      "bufferView": 1,
      "byteOffset": 1048512,
      "componentType": 5126,
      "count": 65532,
      "max": [
        0.9978579878807068,
        0.997983992099762
      ],
      "min": [
        0.004031000193208456,
        0.004031000193208456
      ],
      "type": "VEC2"
    },
    {
      "bufferView": 0,
      "byteOffset": 2860716,
      "componentType": 5125,
      "count": 319140,
      "type": "SCALAR"
    },
    {
      "bufferView": 2,
      "byteOffset": 4718304,
      "componentType": 5126,
      "count": 20063,
      "max": [
        2.473862886428833,
        -1.3719799518585205,
        5.126711845397949
      ],
      "min": [
        -8.30905818939209,
        -23.408445358276367,
        -4.435352802276611
      ],
      "type": "VEC3"
    },
    {
      "bufferView": 2,
      "byteOffset": 4959060,
      "componentType": 5126,
      "count": 20063,
      "max": [
        0.9999922513961792,
        0.9388326406478882,
        0.9997154474258423
      ],
      "min": [
        -0.9438747763633728,
        -0.9981105327606201,
        -0.9999992251396179
      ],
      "type": "VEC3"
    },
    {
      "bufferView": 1,
      "byteOffset": 1572768,
      "componentType": 5126,
      "count": 20063,
      "max": [
        0.997983992099762,
        0.997983992099762
      ],
      "min": [
        0.07810500264167786,
        0.004031000193208456
      ],
      "type": "VEC2"
    },
    {
      "bufferView": 0,
      "byteOffset": 4137276,
      "componentType": 5125,
      "count": 89472,
      "type": "SCALAR"
    }
  ],
  "asset": {
    "extras": {
      "author": "Geoffrey Marchal (https://sketchfab.com/geoffreymarchal)",
      "license": "CC-BY-NC-4.0 (http://creativecommons.org/licenses/by-nc/4.0/)",
      "source": "https://sketchfab.com/3d-models/signe-tegner-381cbf8a06f042b9b41932f1f7ada997",
      "title": "Signe Tegner"
    },
    "generator": "Sketchfab-12.68.0",
    "version": "2.0"
  },
  "bufferViews": [
    {
      "buffer": 0,
      "byteLength": 4495164,
      "name": "floatBufferViews",
      "target": 34963
    },
    {
      "buffer": 0,
      "byteLength": 1733272,
      "byteOffset": 4495164,
      "byteStride": 8,
      "name": "floatBufferViews",
      "target": 34962
    },
    {
      "buffer": 0,
      "byteLength": 5199816,
      "byteOffset": 6228436,
      "byteStride": 12,
      "name": "floatBufferViews",
      "target": 34962
    }
  ],
  "buffers": [
    {
      "byteLength": 11428252,
      "uri": "scene.bin"
    }
  ],
  "images": [
    {
      "uri": "textures/Material_0_baseColor.jpeg"
    }
  ],
  "materials": [
    {
      "doubleSided": true,
      "name": "Material_0",
      "pbrMetallicRoughness": {
        "baseColorTexture": {
          "index": 0
        },
        "metallicFactor": 0.0,
        "roughnessFactor": 0.6
      }
    }
  ],
  "meshes": [
    {
      "name": "Object_0",
      "primitives": [
        {
          "attributes": {
            "NORMAL": 1,
            "POSITION": 0,
            "TEXCOORD_0": 2
          },
          "indices": 3,
          "material": 0,
          "mode": 4
        }
      ]
    },
    {
      "name": "Object_1",
      "primitives": [
        {
          "attributes": {
            "NORMAL": 5,
            "POSITION": 4,
            "TEXCOORD_0": 6
          },
          "indices": 7,
          "material": 0,
          "mode": 4
        }
      ]
    },
    {
      "name": "Object_2",
      "primitives": [
        {
          "attributes": {
            "NORMAL": 9,
            "POSITION": 8,
            "TEXCOORD_0": 10
          },
          "indices": 11,
          "material": 0,
          "mode": 4
        }
      ]
    },
    {
      "name": "Object_3",
      "primitives": [
        {
          "attributes": {
            "NORMAL": 13,
            "POSITION": 12,
            "TEXCOORD_0": 14
          },
          "indices": 15,
          "material": 0,
          "mode": 4
        }
      ]
    }
  ],
  "nodes": [
    {
      "children": [
        1
      ],
      "matrix": [
        0.2660050690174103,
        -2.1404469637556966e-16,
        0.9639716148376465,
        0.0,
        0.0,
        -1.0,
        -2.220446049250313e-16,
        0.0,
        0.9639716148376465,
        5.906499045802655e-17,
        -0.2660050690174103,
        0.0,
        -2.1017794609069824,
        -10.643032073974613,
        13.403345108032225,
        1.0
      ],
      "name": "Sketchfab_model"
    },
    {
      "children": [
        2,
        3,
        4,
        5
      ],
      "name": "womanrock.obj.cleaner.gles"
    },
    {
      "mesh": 0,
      "name": "Object_2"
    },
    {
      "mesh": 1,
      "name": "Object_3"
    },
    {
      "mesh": 2,
      "name": "Object_4"
    },
    {
      "mesh": 3,
      "name": "Object_5"
    }
  ],
  "samplers": [
    {
      "magFilter": 9729,
      "minFilter": 9987,
      "wrapS": 10497,
      "wrapT": 10497
    }
  ],
  "scene": 0,
  "scenes": [
    {
      "name": "Sketchfab_Scene",
      "nodes": [
        0
      ]
    }
  ],
  "textures": [
    {
      "sampler": 0,
      "source": 0
    }
  ]
}
